<?xml version="1.0" standalone="no"?>
<!DOCTYPE svg PUBLIC "-//W3C//DTD SVG 20010904//EN"
 "http://www.w3.org/TR/2001/REC-SVG-20010904/DTD/svg10.dtd">
<svg version="1.0" xmlns="http://www.w3.org/2000/svg"
 width="500.000000pt" height="400.000000pt" viewBox="0 0 500.000000 400.000000"
 preserveAspectRatio="xMidYMid meet">

<g transform="translate(0.000000,400.000000) scale(0.100000,-0.100000)"
fill="#000000" stroke="none">
<path d="M2685 3993 c-352 -10 -771 -147 -1094 -357 -165 -106 -278 -218 -410
-404 -28 -39 -51 -74 -51 -76 0 -2 -17 -35 -39 -73 -100 -176 -185 -459 -216
-716 -5 -39 -11 -50 -35 -62 -16 -8 -40 -15 -54 -15 -39 0 -22 -25 33 -49 l48
-20 7 -93 c8 -102 35 -207 73 -280 47 -89 53 -84 53 43 0 67 7 151 17 204 l18
90 6 -120 c5 -78 16 -154 33 -219 14 -54 26 -112 26 -130 0 -17 7 -56 15 -86
17 -63 20 -186 5 -224 -5 -15 -6 -26 -1 -26 13 0 58 56 66 80 11 34 35 5 29
-33 -10 -57 -36 -141 -55 -181 -10 -22 -17 -42 -14 -44 2 -3 18 1 35 8 31 13
78 66 96 108 8 19 13 -2 28 -110 24 -172 85 -360 155 -479 56 -96 164 -218
244 -276 29 -21 59 -43 67 -50 45 -37 251 -185 313 -225 90 -60 246 -137 312
-154 118 -32 327 -26 410 11 17 8 60 27 96 43 73 32 219 122 260 159 14 13 28
23 32 23 12 0 287 208 347 263 145 131 250 342 294 587 8 47 17 94 19 105 3
11 8 44 12 74 l7 55 19 -39 c23 -47 46 -73 81 -91 43 -22 48 -17 28 29 -10 23
-28 80 -40 125 -17 67 -18 87 -9 99 11 12 15 10 27 -14 16 -31 52 -73 62 -73
4 0 1 23 -6 52 -16 59 -19 154 -5 162 4 3 13 31 19 63 6 32 23 121 38 198 15
77 30 172 33 210 4 43 9 63 13 53 8 -18 26 -193 31 -283 l2 -50 28 75 c42 109
56 198 56 350 1 130 -18 320 -38 384 -5 17 -22 85 -37 151 -42 185 -172 490
-270 630 -50 72 -210 242 -257 273 -65 44 -87 54 -121 55 -29 1 -36 7 -61 55
-42 80 -105 123 -251 171 -156 52 -308 70 -529 64z m749 -1085 c12 -114 37
-252 56 -308 10 -30 31 -93 45 -140 31 -98 62 -143 52 -75 -4 22 -9 110 -13
195 -5 149 -5 154 11 125 20 -36 95 -224 95 -239 0 -6 7 -23 14 -38 23 -44 57
-178 61 -238 2 -36 8 -55 17 -56 32 -4 31 -6 -5 -19 -44 -16 -67 -11 -67 17 0
25 -28 78 -41 78 -6 0 -8 7 -5 16 10 26 -31 71 -92 99 -31 15 -73 35 -93 45
-45 23 -167 57 -234 65 -66 8 -83 14 -68 23 16 10 115 202 158 307 20 50 40
95 44 100 5 6 16 33 26 62 10 29 22 50 25 48 4 -3 10 -33 14 -67z m-827 -220
c-19 -81 -46 -163 -85 -258 -21 -52 -42 -103 -45 -113 -6 -17 -10 -15 -32 11
-14 16 -36 33 -50 36 -23 6 -24 9 -14 29 7 12 25 38 41 58 16 20 48 65 71 101
52 82 118 178 122 178 1 0 -2 -19 -8 -42z m-1021 -194 c-3 -9 -6 -22 -6 -30 0
-9 -5 -12 -12 -8 -7 5 -8 3 -3 -5 12 -20 -68 -196 -129 -284 -43 -62 -39 -59
-72 -47 -15 6 -24 14 -19 18 6 4 11 23 13 42 1 19 6 37 10 40 4 3 15 20 25 38
10 18 34 49 53 70 18 20 34 40 34 43 0 3 11 19 25 35 14 16 35 46 47 67 21 36
46 52 34 21z m1444 -318 c0 -2 -24 -17 -52 -34 -52 -29 -100 -72 -81 -72 5 0
25 11 43 25 115 85 405 87 523 3 63 -45 11 -53 -101 -16 -189 63 -393 14 -517
-124 -69 -77 -63 -93 51 -134 192 -69 438 -68 581 2 83 40 97 63 67 113 -18
30 -18 31 4 54 20 22 29 47 17 47 -4 0 -20 -7 -36 -16 -36 -18 -45 -14 -29 16
9 17 14 19 26 9 8 -6 14 -7 14 -2 0 13 -52 62 -97 89 -37 23 -37 23 -11 24 47
0 172 -30 188 -46 12 -11 15 -46 17 -157 1 -119 -2 -153 -19 -207 -11 -36 -28
-72 -38 -81 -39 -34 -135 -44 -400 -43 -292 0 -392 11 -427 46 -40 40 -64 147
-63 277 0 62 5 121 10 131 5 10 25 19 47 22 21 3 69 18 106 33 57 22 94 32
170 44 4 0 7 -1 7 -3z m-724 -27 c24 -6 44 -15 44 -19 0 -4 -16 -18 -36 -32
-34 -25 -35 -26 -14 -33 12 -4 45 -5 73 -3 l52 3 7 -85 c13 -177 -22 -309 -87
-329 -91 -28 -511 -41 -662 -20 -114 16 -139 29 -164 86 -22 51 -46 270 -32
284 5 5 26 12 48 17 36 7 43 5 68 -20 27 -26 27 -29 13 -50 -9 -12 -16 -35
-16 -50 0 -38 71 -82 170 -105 88 -20 297 -23 375 -4 84 20 197 63 202 78 17
44 -69 144 -162 187 -81 38 -88 44 -70 62 12 12 22 13 54 4 22 -6 43 -15 46
-20 3 -6 15 -15 26 -21 19 -9 19 -9 10 10 -6 11 -25 28 -41 38 -17 9 -30 21
-30 25 0 12 74 10 126 -3z m310 -66 c-3 -4 -18 0 -33 7 l-28 13 30 12 c27 12
30 12 33 -7 2 -11 1 -22 -2 -25z m-1335 -27 c5 -74 -5 -563 -11 -570 -15 -15
-70 45 -103 114 -31 62 -32 71 -32 185 0 121 4 141 52 242 20 44 91 66 94 29z
m2023 4 c5 -5 -3 -20 -18 -35 -28 -28 -35 -27 -86 15 -21 17 -23 21 -10 30 16
11 99 3 114 -10z m669 -35 c50 -105 65 -300 31 -393 -24 -62 -58 -114 -93
-140 l-28 -21 -8 280 -7 280 22 24 c18 19 26 22 45 13 12 -5 29 -25 38 -43z
m-1875 35 c20 0 14 -28 -10 -44 -19 -14 -24 -13 -51 6 -28 20 -29 22 -11 35
11 8 28 12 39 9 11 -3 26 -6 33 -6z m-438 -31 c0 -5 -9 -9 -20 -9 -22 0 -27
16 -7 23 15 5 27 -1 27 -14z m1821 -58 c52 -50 60 -78 31 -104 -21 -19 -125
-57 -155 -57 -18 0 -18 1 3 38 24 39 32 123 17 175 l-8 28 31 -16 c17 -9 54
-38 81 -64z m-509 -10 c-3 -50 1 -78 13 -101 9 -17 14 -34 11 -37 -7 -7 -176
45 -176 54 0 20 50 80 94 113 28 21 53 39 56 39 3 1 4 -30 2 -68z m-723 25
c51 -37 92 -100 76 -114 -14 -11 -155 -56 -160 -50 -3 2 5 22 16 44 15 30 19
53 17 97 -3 31 -2 57 0 57 2 0 25 -16 51 -34z m-500 -2 c29 -6 31 -9 31 -51 0
-30 9 -59 27 -90 24 -41 24 -45 7 -40 -10 3 -39 11 -64 17 -70 18 -120 50
-120 76 0 26 55 94 75 94 7 0 27 -3 44 -6z m869 -6 c7 -7 12 -23 12 -37 0 -15
6 -46 15 -71 8 -25 21 -76 30 -115 23 -97 43 -135 80 -150 115 -49 640 -55
793 -10 38 12 56 23 66 43 15 29 90 249 100 295 5 21 12 27 32 27 14 0 34 -4
44 -10 17 -9 18 -27 15 -312 -3 -329 -9 -389 -64 -577 -28 -97 -95 -245 -127
-282 -8 -8 -14 -19 -14 -24 0 -4 -13 -21 -30 -37 -16 -15 -30 -32 -30 -36 0
-11 -111 -116 -145 -138 -16 -10 -33 -22 -36 -27 -17 -23 -335 -240 -439 -300
-35 -19 -125 -53 -167 -62 -12 -3 -33 -9 -45 -14 -24 -9 -200 -6 -258 4 -74
12 -232 73 -245 95 -3 4 -24 18 -48 29 -23 11 -66 39 -95 61 -29 22 -57 40
-62 40 -6 0 -29 17 -53 38 -23 21 -54 43 -68 51 -14 7 -43 28 -64 47 -21 19
-41 34 -44 34 -3 0 -45 38 -93 84 -86 83 -164 189 -195 264 -30 73 -45 107
-56 127 -10 18 -23 74 -47 195 -29 148 -44 503 -31 723 1 12 9 17 31 17 25 0
30 -4 30 -23 0 -12 9 -41 21 -62 11 -22 29 -73 40 -114 28 -107 49 -137 112
-156 92 -28 310 -39 516 -26 102 6 208 16 236 23 46 12 51 17 87 80 21 37 42
91 47 120 6 29 16 82 22 118 7 36 17 68 23 72 18 12 91 9 104 -4z"/>
<path d="M2356 1405 c-9 -26 -7 -32 5 -12 6 10 9 21 6 23 -2 3 -7 -2 -11 -11z"/>
<path d="M2796 1367 c8 -80 -10 -107 -70 -107 -26 0 -48 -6 -56 -15 -18 -22
-69 -45 -100 -45 -14 0 -45 14 -68 31 -28 20 -56 32 -81 33 -52 3 -69 19 -73
69 l-3 42 -14 -59 c-24 -96 8 -128 100 -102 21 6 34 1 68 -28 62 -52 118 -47
167 13 21 24 24 25 56 13 50 -18 76 -15 89 10 16 29 13 100 -6 158 l-15 45 6
-58z"/>
<path d="M2010 909 c0 -40 177 -110 323 -129 117 -15 407 -12 512 5 138 22
275 75 289 111 11 27 0 27 -48 -1 -89 -52 -208 -68 -511 -69 -308 0 -420 14
-512 64 -29 15 -53 24 -53 19z"/>
<path d="M2840 689 c-43 -12 -468 -15 -529 -4 -61 10 -45 -9 21 -26 72 -19
422 -17 497 2 30 8 56 20 59 27 4 14 1 14 -48 1z"/>
</g>
</svg>
