<svg version="1" xmlns="http://www.w3.org/2000/svg" viewBox="0 0 500 400">
  <path d="M268.5.7c-35.2 1-77.1 14.7-109.4 35.7-16.5 10.6-27.8 21.8-41 40.4-2.8 3.9-5.1 7.4-5.1 7.6 0 .2-1.7 3.5-3.9 7.3-10 17.6-18.5 45.9-21.6 71.6-.5 3.9-1.1 5-3.5 6.2-1.6.8-4 1.5-5.4 1.5-3.9 0-2.2 2.5 3.3 4.9l4.8 2 .7 9.3c.8 10.2 3.5 20.7 7.3 28 4.7 8.9 5.3 8.4 5.3-4.3 0-6.7.7-15.1 1.7-20.4l1.8-9 .6 12c.5 7.8 1.6 15.4 3.3 21.9 1.4 5.4 2.6 11.2 2.6 13 0 1.7.7 5.6 1.5 8.6 1.7 6.3 2 18.6.5 22.4-.5 1.5-.6 2.6-.1 2.6 1.3 0 5.8-5.6 6.6-8 1.1-3.4 3.5-.5 2.9 3.3-1 5.7-3.6 14.1-5.5 18.1-1 2.2-1.7 4.2-1.4 4.4.2.3 1.8-.1 3.5-.8 3.1-1.3 7.8-6.6 9.6-10.8.8-1.9 1.3.2 2.8 11 2.4 17.2 8.5 36 15.5 47.9 5.6 9.6 16.4 21.8 24.4 27.6 2.9 2.1 5.9 4.3 6.7 5 4.5 3.7 25.1 18.5 31.3 22.5 9 6 24.6 13.7 31.2 15.4 11.8 3.2 32.7 2.6 41-1.1 1.7-.8 6-2.7 9.6-4.3 7.3-3.2 21.9-12.2 26-15.9 1.4-1.3 2.8-2.3 3.2-2.3 1.2 0 28.7-20.8 34.7-26.3 14.5-13.1 25-34.2 29.4-58.7.8-4.7 1.7-9.4 1.9-10.5.3-1.1.8-4.4 1.2-7.4l.7-5.5 1.9 3.9c2.3 4.7 4.6 7.3 8.1 9.1 4.3 2.2 4.8 1.7 2.8-2.9-1-2.3-2.8-8-4-12.5-1.7-6.7-1.8-8.7-.9-9.9 1.1-1.2 1.5-1 2.7 1.4 1.6 3.1 5.2 7.3 6.2 7.3.4 0 .1-2.3-.6-5.2-1.6-5.9-1.9-15.4-.5-16.2.4-.3 1.3-3.1 1.9-6.3.6-3.2 2.3-12.1 3.8-19.8 1.5-7.7 3-17.2 3.3-21 .4-4.3.9-6.3 1.3-5.3.8 1.8 2.6 19.3 3.1 28.3l.2 5 2.8-7.5c4.2-10.9 5.6-19.8 5.6-35 .1-13-1.8-32-3.8-38.4-.5-1.7-2.2-8.5-3.7-15.1-4.2-18.5-17.2-49-27-63-5-7.2-21-24.2-25.7-27.3-6.5-4.4-8.7-5.4-12.1-5.5-2.9-.1-3.6-.7-6.1-5.5-4.2-8-10.5-12.3-25.1-17.1-15.6-5.2-30.8-7-52.9-6.4zm74.9 108.5c1.2 11.4 3.7 25.2 5.6 30.8 1 3 3.1 9.3 4.5 14 3.1 9.8 6.2 14.3 5.2 7.5-.4-2.2-.9-11-1.3-19.5-.5-14.9-.5-15.4 1.1-12.5 2 3.6 9.5 22.4 9.5 23.9 0 .6.7 2.3 1.4 3.8 2.3 4.4 5.7 17.8 6.1 23.8.2 3.6.8 5.5 1.7 5.6 3.2.4 3.1.6-.5 1.9-4.4 1.6-6.7 1.1-6.7-1.7 0-2.5-2.8-7.8-4.1-7.8-.6 0-.8-.7-.5-1.6 1-2.6-3.1-7.1-9.2-9.9-3.1-1.5-7.3-3.5-9.3-4.5-4.5-2.3-16.7-5.7-23.4-6.5-6.6-.8-8.3-1.4-6.8-2.3 1.6-1 11.5-20.2 15.8-30.7 2-5 4-9.5 4.4-10 .5-.6 1.6-3.3 2.6-6.2 1-2.9 2.2-5 2.5-4.8.4.3 1 3.3 1.4 6.7zm-82.7 22c-1.9 8.1-4.6 16.3-8.5 25.8-2.1 5.2-4.2 10.3-4.5 11.3-.6 1.7-1 1.5-3.2-1.1-1.4-1.6-3.6-3.3-5-3.6-2.3-.6-2.4-.9-1.4-2.9.7-1.2 2.5-3.8 4.1-5.8 1.6-2 4.8-6.5 7.1-10.1 5.2-8.2 11.8-17.8 12.2-17.8.1 0-.2 1.9-.8 4.2zm-102.1 19.4c-.3.9-.6 2.2-.6 3 0 .9-.5 1.2-1.2.8-.7-.5-.8-.3-.3.5 1.2 2-6.8 19.6-12.9 28.4-4.3 6.2-3.9 5.9-7.2 4.7-1.5-.6-2.4-1.4-1.9-1.8.6-.4 1.1-2.3 1.3-4.2.1-1.9.6-3.7 1-4 .4-.3 1.5-2 2.5-3.8 1-1.8 3.4-4.9 5.3-7 1.8-2 3.4-4 3.4-4.3 0-.3 1.1-1.9 2.5-3.5s3.5-4.6 4.7-6.7c2.1-3.6 4.6-5.2 3.4-2.1zM303 182.4c0 .2-2.4 1.7-5.2 3.4-5.2 2.9-10 7.2-8.1 7.2.5 0 2.5-1.1 4.3-2.5 11.5-8.5 40.5-8.7 52.3-.3 6.3 4.5 1.1 5.3-10.1 1.6-18.9-6.3-39.3-1.4-51.7 12.4-6.9 7.7-6.3 9.3 5.1 13.4 19.2 6.9 43.8 6.8 58.1-.2 8.3-4 9.7-6.3 6.7-11.3-1.8-3-1.8-3.1.4-5.4 2-2.2 2.9-4.7 1.7-4.7-.4 0-2 .7-3.6 1.6-3.6 1.8-4.5 1.4-2.9-1.6.9-1.7 1.4-1.9 2.6-.9.8.6 1.4.7 1.4.2 0-1.3-5.2-6.2-9.7-8.9-3.7-2.3-3.7-2.3-1.1-2.4 4.7 0 17.2 3 18.8 4.6 1.2 1.1 1.5 4.6 1.7 15.7.1 11.9-.2 15.3-1.9 20.7-1.1 3.6-2.8 7.2-3.8 8.1-3.9 3.4-13.5 4.4-40 4.3-29.2 0-39.2-1.1-42.7-4.6-4-4-6.4-14.7-6.3-27.7 0-6.2.5-12.1 1-13.1s2.5-1.9 4.7-2.2c2.1-.3 6.9-1.8 10.6-3.3 5.7-2.2 9.4-3.2 17-4.4.4 0 .7.1.7.3zm-72.4 2.7c2.4.6 4.4 1.5 4.4 1.9 0 .4-1.6 1.8-3.6 3.2-3.4 2.5-3.5 2.6-1.4 3.3 1.2.4 4.5.5 7.3.3l5.2-.3.7 8.5c1.3 17.7-2.2 30.9-8.7 32.9-9.1 2.8-51.1 4.1-66.2 2-11.4-1.6-13.9-2.9-16.4-8.6-2.2-5.1-4.6-27-3.2-28.4.5-.5 2.6-1.2 4.8-1.7 3.6-.7 4.3-.5 6.8 2 2.7 2.6 2.7 2.9 1.3 5-.9 1.2-1.6 3.5-1.6 5 0 3.8 7.1 8.2 17 10.5 8.8 2 29.7 2.3 37.5.4 8.4-2 19.7-6.3 20.2-7.8 1.7-4.4-6.9-14.4-16.2-18.7-8.1-3.8-8.8-4.4-7-6.2 1.2-1.2 2.2-1.3 5.4-.4 2.2.6 4.3 1.5 4.6 2 .3.6 1.5 1.5 2.6 2.1 1.9.9 1.9.9 1-1-.6-1.1-2.5-2.8-4.1-3.8-1.7-.9-3-2.1-3-2.5 0-1.2 7.4-1 12.6.3zm31 6.6c-.3.4-1.8 0-3.3-.7l-2.8-1.3 3-1.2c2.7-1.2 3-1.2 3.3.7.2 1.1.1 2.2-.2 2.5zm-133.5 2.7c.5 7.4-.5 56.3-1.1 57-1.5 1.5-7-4.5-10.3-11.4-3.1-6.2-3.2-7.1-3.2-18.5 0-12.1.4-14.1 5.2-24.2 2-4.4 9.1-6.6 9.4-2.9zm202.3-.4c.5.5-.3 2-1.8 3.5-2.8 2.8-3.5 2.7-8.6-1.5-2.1-1.7-2.3-2.1-1-3 1.6-1.1 9.9-.3 11.4 1zm66.9 3.5c5 10.5 6.5 30 3.1 39.3-2.4 6.2-5.8 11.4-9.3 14l-2.8 2.1-.8-28-.7-28 2.2-2.4c1.8-1.9 2.6-2.2 4.5-1.3 1.2.5 2.9 2.5 3.8 4.3zM209.8 194c2 0 1.4 2.8-1 4.4-1.9 1.4-2.4 1.3-5.1-.6-2.8-2-2.9-2.2-1.1-3.5 1.1-.8 2.8-1.2 3.9-.9 1.1.3 2.6.6 3.3.6zm-43.8 3.1c0 .5-.9.9-2 .9-2.2 0-2.7-1.6-.7-2.3 1.5-.5 2.7.1 2.7 1.4zm182.1 5.8c5.2 5 6 7.8 3.1 10.4-2.1 1.9-12.5 5.7-15.5 5.7-1.8 0-1.8-.1.3-3.8 2.4-3.9 3.2-12.3 1.7-17.5l-.8-2.8 3.1 1.6c1.7.9 5.4 3.8 8.1 6.4zm-50.9 1c-.3 5 .1 7.8 1.3 10.1.9 1.7 1.4 3.4 1.1 3.7-.7.7-17.6-4.5-17.6-5.4 0-2 5-8 9.4-11.3 2.8-2.1 5.3-3.9 5.6-3.9.3-.1.4 3 .2 6.8zm-72.3-2.5c5.1 3.7 9.2 10 7.6 11.4-1.4 1.1-15.5 5.6-16 5-.3-.2.5-2.2 1.6-4.4 1.5-3 1.9-5.3 1.7-9.7-.3-3.1-.2-5.7 0-5.7s2.5 1.6 5.1 3.4zm-50 .2c2.9.6 3.1.9 3.1 5.1 0 3 .9 5.9 2.7 9 2.4 4.1 2.4 4.5.7 4-1-.3-3.9-1.1-6.4-1.7-7-1.8-12-5-12-7.6 0-2.6 5.5-9.4 7.5-9.4.7 0 2.7.3 4.4.6zm86.9.6c.7.7 1.2 2.3 1.2 3.7 0 1.5.6 4.6 1.5 7.1.8 2.5 2.1 7.6 3 11.5 2.3 9.7 4.3 13.5 8 15 11.5 4.9 64 5.5 79.3 1 3.8-1.2 5.6-2.3 6.6-4.3 1.5-2.9 9-24.9 10-29.5.5-2.1 1.2-2.7 3.2-2.7 1.4 0 3.4.4 4.4 1 1.7.9 1.8 2.7 1.5 31.2-.3 32.9-.9 38.9-6.4 57.7-2.8 9.7-9.5 24.5-12.7 28.2-.8.8-1.4 1.9-1.4 2.4 0 .4-1.3 2.1-3 3.7-1.6 1.5-3 3.2-3 3.6 0 1.1-11.1 11.6-14.5 13.8-1.6 1-3.3 2.2-3.6 2.7-1.7 2.3-33.5 24-43.9 30-3.5 1.9-12.5 5.3-16.7 6.2-1.2.3-3.3.9-4.5 1.4-2.4.9-20 .6-25.8-.4-7.4-1.2-23.2-7.3-24.5-9.5-.3-.4-2.4-1.8-4.8-2.9-2.3-1.1-6.6-3.9-9.5-6.1-2.9-2.2-5.7-4-6.2-4-.6 0-2.9-1.7-5.3-3.8-2.3-2.1-5.4-4.3-6.8-5.1-1.4-.7-4.3-2.8-6.4-4.7-2.1-1.9-4.1-3.4-4.4-3.4-.3 0-4.5-3.8-9.3-8.4-8.6-8.3-16.4-18.9-19.5-26.4-3-7.3-4.5-10.7-5.6-12.7-1-1.8-2.3-7.4-4.7-19.5-2.9-14.8-4.4-50.3-3.1-72.3.1-1.2.9-1.7 3.1-1.7 2.5 0 3 .4 3 2.3 0 1.2.9 4.1 2.1 6.2 1.1 2.2 2.9 7.3 4 11.4 2.8 10.7 4.9 13.7 11.2 15.6 9.2 2.8 31 3.9 51.6 2.6 10.2-.6 20.8-1.6 23.6-2.3 4.6-1.2 5.1-1.7 8.7-8 2.1-3.7 4.2-9.1 4.7-12 .6-2.9 1.6-8.2 2.2-11.8.7-3.6 1.7-6.8 2.3-7.2 1.8-1.2 9.1-.9 10.4.4z"/>
  <path d="M235.6 259.5c-.9 2.6-.7 3.2.5 1.2.6-1 .9-2.1.6-2.3-.2-.3-.7.2-1.1 1.1zM279.6 263.3c.8 8-1 10.7-7 10.7-2.6 0-4.8.6-5.6 1.5-1.8 2.2-6.9 4.5-10 4.5-1.4 0-4.5-1.4-6.8-3.1-2.8-2-5.6-3.2-8.1-3.3-5.2-.3-6.9-1.9-7.3-6.9l-.3-4.2-1.4 5.9c-2.4 9.6.8 12.8 10 10.2 2.1-.6 3.4-.1 6.8 2.8 6.2 5.2 11.8 4.7 16.7-1.3 2.1-2.4 2.4-2.5 5.6-1.3 5 1.8 7.6 1.5 8.9-1 1.6-2.9 1.3-10-.6-15.8l-1.5-4.5.6 5.8zM201 309.1c0 4 17.7 11 32.3 12.9 11.7 1.5 40.7 1.2 51.2-.5 13.8-2.2 27.5-7.5 28.9-11.1 1.1-2.7 0-2.7-4.8.1-8.9 5.2-20.8 6.8-51.1 6.9-30.8 0-42-1.4-51.2-6.4-2.9-1.5-5.3-2.4-5.3-1.9zM284 331.1c-4.3 1.2-46.8 1.5-52.9.4-6.1-1-4.5.9 2.1 2.6 7.2 1.9 42.2 1.7 49.7-.2 3-.8 5.6-2 5.9-2.7.4-1.4.1-1.4-4.8-.1z"/>
</svg>
